Coordinates
version=1
nRows=20
nColumns=63
inDegrees=yes

Units are S.I. units (second, meters, Newtons, ...)
If the header above contains a line with 'inDegrees', this indicates whether rotational values are in degrees (yes) or radians (no).

endheader
time	pelvis_tilt	pelvis_list	pelvis_rotation	pelvis_tx	pelvis_ty	pelvis_tz	hip_flexion_r	hip_adduction_r	hip_rotation_r	knee_angle_r	knee_angle_r_beta	ankle_angle_r	subtalar_angle_r	mtp_angle_r	hip_flexion_l	hip_adduction_l	hip_rotation_l	knee_angle_l	knee_angle_l_beta	ankle_angle_l	subtalar_angle_l	mtp_angle_l	L5_S1_Flex_Ext	L5_S1_Lat_Bending	L5_S1_axial_rotation	L4_L5_Flex_Ext	L4_L5_Lat_Bending	L4_L5_axial_rotation	L3_L4_Flex_Ext	L3_L4_Lat_Bending	L3_L4_axial_rotation	L2_L3_Flex_Ext	L2_L3_Lat_Bending	L2_L3_axial_rotation	L1_L2_Flex_Ext	L1_L2_Lat_Bending	L1_L2_axial_rotation	L1_T12_Flex_Ext	L1_T12_Lat_Bending	L1_T12_axial_rotation	Abs_r3	Abs_r2	Abs_r1	Abs_t1	Abs_t2	neck_flexion	neck_bending	neck_rotation	arm_flex_r	arm_add_r	arm_rot_r	elbow_flex_r	pro_sup_r	wrist_flex_r	wrist_dev_r	arm_flex_l	arm_add_l	arm_rot_l	elbow_flex_l	pro_sup_l	wrist_flex_l	wrist_dev_l
0.000000	1.470405	-5.676776	90.240101	0.198391	0.515508	0.955419	2.963250	4.453053	-2.554751	12.092692	0.211057	45.216487	13.203475	0.000000	0.600504	-0.330545	-5.116462	11.178913	0.195109	43.276573	-3.643964	0.000000	0.101120	0.679030	0.822550	0.187789	0.903110	0.873959	0.166129	1.650993	0.873959	0.115570	1.650993	0.719731	0.093900	1.384677	0.668322	0.057780	1.051817	0.616912	0.722287	7.681320	4.574776	0.000000	0.000000	25.846433	-2.599209	8.061687	24.545766	-5.688923	79.301959	39.257586	48.394740	11.604662	8.020895	18.627353	-4.202832	59.437795	40.516298	57.937230	12.548016	11.766162
0.016667	1.608245	-5.698042	91.066885	0.197001	0.514700	0.956170	2.854601	4.434884	-4.460148	12.174742	0.212489	45.674461	14.311724	0.000000	1.035738	-0.442318	-4.414618	12.108346	0.211331	43.574575	-3.378308	0.000000	0.113762	0.702464	0.673226	0.211268	0.934277	0.715303	0.186900	1.707972	0.715303	0.130019	1.707972	0.589073	0.105640	1.432465	0.546996	0.065004	1.088117	0.504920	0.812594	7.946416	3.744283	0.000000	0.000000	26.096571	-2.211615	8.567548	24.232402	-6.025798	77.724310	39.976682	48.440122	11.427352	8.358703	18.701571	-4.308679	59.879431	40.835751	56.361386	12.080131	11.914084
0.033333	1.697144	-5.719039	91.701051	0.195940	0.514058	0.956776	2.774189	4.394370	-5.990171	12.254619	0.213883	46.028241	15.226211	0.000000	1.395862	-0.511077	-3.856867	12.861595	0.224477	43.806210	-3.178643	0.000000	0.124204	0.718648	0.558384	0.230660	0.955801	0.593283	0.204055	1.747320	0.593283	0.141953	1.747320	0.488586	0.115336	1.465466	0.453687	0.070970	1.113185	0.418788	0.887179	8.129485	3.105566	0.000000	0.000000	26.317080	-1.831447	8.997505	23.965102	-6.285438	76.448375	40.526954	48.549136	11.292227	8.639156	18.761982	-4.386266	60.237799	41.074210	55.048427	11.642352	11.938975
0.050000	1.743107	-5.739945	92.160982	0.195178	0.513569	0.957251	2.720267	4.335475	-7.176838	12.331609	0.215227	46.288026	15.962891	0.000000	1.687922	-0.542474	-3.431593	13.454376	0.234823	43.978402	-3.037097	0.000000	0.132619	0.728437	0.474715	0.246287	0.968821	0.504384	0.217880	1.771122	0.504384	0.151570	1.771122	0.415375	0.123150	1.485429	0.385706	0.075778	1.128349	0.356036	0.947284	8.240226	2.640221	0.000000	0.000000	26.509187	-1.462628	9.357565	23.740495	-6.475736	75.447108	40.925115	48.711981	11.195506	8.868448	18.810387	-4.437906	60.521699	41.238786	53.977957	11.235597	11.855824
0.066667	1.752141	-5.760936	92.465061	0.194680	0.513217	0.957610	2.691084	4.262166	-8.052166	12.404993	0.216508	46.464017	16.537720	0.000000	1.918965	-0.542166	-3.127176	13.902405	0.242643	44.098076	-2.945796	0.000000	0.139180	0.732690	0.418908	0.258471	0.974478	0.445090	0.228659	1.781463	0.445090	0.159069	1.781463	0.366545	0.129243	1.494102	0.340363	0.079527	1.134937	0.314181	0.994149	8.288341	2.329842	0.000000	0.000000	26.674117	-1.109084	9.653736	23.555205	-6.604584	74.693464	41.187876	48.918857	11.133408	9.052771	18.848586	-4.465915	60.739934	41.336594	53.129584	10.860785	11.679616
0.083333	1.730251	-5.782187	92.631672	0.194415	0.512991	0.957869	2.684893	4.178410	-8.648174	12.474056	0.217713	46.566413	16.966655	0.000000	2.096037	-0.515804	-2.932001	14.221399	0.248210	44.172155	-2.896869	0.000000	0.144062	0.732265	0.387656	0.267537	0.973913	0.411884	0.236679	1.780429	0.411884	0.164648	1.780429	0.339199	0.133776	1.493235	0.314970	0.082317	1.134279	0.290742	1.029017	8.283529	2.156025	0.000000	0.000000	26.813096	-0.774741	9.892023	23.405860	-6.679873	74.160398	41.331949	49.159965	11.102150	9.198320	18.878380	-4.472607	60.901306	41.374746	52.482913	10.518833	11.425338
0.100000	1.683443	-5.803875	92.679200	0.194349	0.512875	0.958044	2.699945	4.088172	-8.996878	12.538083	0.218831	46.605414	17.265650	0.000000	2.226185	-0.469043	-2.834450	14.427074	0.251800	44.207565	-2.882444	0.000000	0.147437	0.728019	0.377648	0.273806	0.968265	0.401251	0.242225	1.770104	0.401251	0.168506	1.770104	0.330442	0.136910	1.484576	0.306839	0.084246	1.127701	0.283236	1.053129	8.235492	2.100366	0.000000	0.000000	26.927351	-0.463522	10.078434	23.289086	-6.709496	73.820865	41.374047	49.425505	11.097952	9.311288	18.901566	-4.460297	61.014616	41.360356	52.017553	10.210660	11.107978
0.116667	1.617722	-5.826177	92.626027	0.194450	0.512858	0.958149	2.734490	3.995418	-9.130296	12.596356	0.219848	46.591218	17.450662	0.000000	2.316455	-0.407538	-2.822905	14.535146	0.253686	44.211229	-2.894646	0.000000	0.149481	0.720809	0.385576	0.277601	0.958675	0.409675	0.245582	1.752574	0.409675	0.170842	1.752574	0.337379	0.138808	1.469873	0.313281	0.085413	1.116533	0.289182	1.067728	8.153931	2.144461	0.000000	0.000000	27.018106	-0.179353	10.218976	23.201509	-6.701344	73.647819	41.330882	49.705675	11.117032	9.397868	18.919947	-4.431299	61.088667	41.300535	51.713108	9.937184	10.742522
0.133333	1.539095	-5.849268	92.490538	0.194685	0.512924	0.958200	2.786780	3.904115	-9.080446	12.648159	0.220752	46.534027	17.537647	0.000000	2.373893	-0.336941	-2.885748	14.561333	0.254143	44.190072	-2.925606	0.000000	0.150367	0.711493	0.408131	0.279246	0.946285	0.433640	0.247037	1.729923	0.433640	0.171854	1.729923	0.357115	0.139630	1.450876	0.331607	0.085919	1.102102	0.306099	1.074053	8.048546	2.269905	0.000000	0.000000	27.086588	0.073842	10.319655	23.139756	-6.663310	73.614215	41.219167	49.990677	11.155609	9.464255	18.935321	-4.387928	61.132261	41.202398	51.549185	9.699324	10.343958
0.150000	1.453566	-5.873324	92.291117	0.195022	0.513061	0.958212	2.855067	3.818228	-8.879346	12.692777	0.221531	46.444039	17.542559	0.000000	2.405547	-0.262908	-3.011364	14.521349	0.253445	44.151017	-2.967449	0.000000	0.150268	0.700928	0.442004	0.279063	0.932234	0.469629	0.246875	1.704236	0.469629	0.171741	1.704236	0.386753	0.139539	1.429332	0.359128	0.085863	1.085737	0.331503	1.073349	7.929038	2.458293	0.000000	0.000000	27.134022	0.292136	10.386479	23.100452	-6.603285	73.693008	41.055613	50.270710	11.209901	9.516641	18.949489	-4.332499	61.154200	41.073058	51.505392	9.497998	9.927272
0.166667	1.367142	-5.898522	92.046147	0.195427	0.513255	0.958202	2.937600	3.741725	-8.559011	12.729493	0.222172	46.331455	17.481356	0.000000	2.418462	-0.191091	-3.188133	14.430911	0.251867	44.100991	-3.012303	0.000000	0.149359	0.689973	0.483885	0.277374	0.917663	0.514128	0.245382	1.677599	0.514128	0.170702	1.677599	0.423399	0.138695	1.406992	0.393156	0.085344	1.068767	0.362914	1.066855	7.805107	2.691222	0.000000	0.000000	27.161635	0.471606	10.425455	23.080226	-6.529161	73.857153	40.856932	50.535974	11.276127	9.561220	18.964251	-4.267324	61.163285	40.919627	51.561334	9.334124	9.507452
0.183333	1.291336	-5.924268	91.765889	0.195854	0.513488	0.958148	3.026988	3.692722	-8.075305	12.747420	0.222484	46.211702	17.320150	0.000000	2.419421	-0.134323	-3.420904	14.300579	0.249592	44.086855	-3.007994	0.000000	0.148864	0.681217	0.533977	0.276455	0.906018	0.567351	0.244568	1.656311	0.567351	0.170136	1.656311	0.467230	0.138235	1.389137	0.433857	0.085061	1.055205	0.400483	1.063319	7.706061	2.969822	0.000000	0.000000	27.212687	0.663577	10.496017	23.077001	-6.448030	74.122310	40.618448	50.729711	11.439589	9.650205	19.000690	-4.216675	61.346107	40.790057	51.574568	9.112016	9.077177
0.200000	1.242338	-5.952412	91.500460	0.196252	0.513733	0.958129	3.131138	3.672713	-7.605699	12.757098	0.222653	46.117190	17.183939	0.000000	2.419978	-0.107773	-3.679386	14.178500	0.247462	44.064741	-3.000459	0.000000	0.147599	0.675417	0.579311	0.274106	0.898305	0.615518	0.242490	1.642210	0.615518	0.168691	1.642210	0.506897	0.137060	1.377311	0.470690	0.084338	1.046221	0.434483	1.054283	7.640455	3.221956	0.000000	0.000000	27.213946	0.769307	10.543252	23.075798	-6.388926	74.318151	40.434108	50.865848	11.522704	9.807955	19.037073	-4.144530	61.436878	40.644399	51.622901	9.028703	8.816975
0.216667	1.220925	-5.985277	91.272093	0.196584	0.513980	0.958178	3.251913	3.673983	-7.235837	12.760822	0.222718	46.056883	17.139577	0.000000	2.433845	-0.110831	-3.933908	14.077445	0.245698	44.038742	-2.984026	0.000000	0.145872	0.672616	0.616558	0.270899	0.894580	0.655093	0.239653	1.635399	0.655093	0.166717	1.635399	0.539488	0.135457	1.371599	0.500953	0.083351	1.041883	0.462419	1.041950	7.608770	3.429111	0.000000	0.000000	27.175909	0.783842	10.561420	23.072431	-6.354384	74.426635	40.311964	50.994560	11.569331	10.006208	19.077575	-4.060788	61.465542	40.508705	51.654905	9.005222	8.732375
0.233333	1.220427	-6.023789	91.080071	0.196859	0.514224	0.958318	3.391775	3.696011	-6.889064	12.762033	0.222739	46.020452	17.090959	0.000000	2.471031	-0.135454	-4.179934	14.008723	0.244498	44.018269	-2.959985	0.000000	0.143898	0.672009	0.646455	0.267233	0.893772	0.686859	0.236410	1.633923	0.686859	0.164461	1.633923	0.565648	0.133623	1.370361	0.525245	0.082223	1.040942	0.484841	1.027847	7.601902	3.595390	0.000000	0.000000	27.104396	0.706441	10.537091	23.091128	-6.339700	74.536282	40.232551	51.075219	11.614926	10.143680	19.125387	-3.972400	61.440746	40.355182	51.914907	9.113700	8.628649
0.250000	1.240273	-6.066842	90.919981	0.197072	0.514467	0.958584	3.542997	3.742256	-6.534411	12.749689	0.222524	45.990636	16.998556	0.000000	2.532920	-0.183685	-4.443210	13.968347	0.243794	44.016345	-2.889871	0.000000	0.140730	0.673692	0.669828	0.261349	0.896010	0.711693	0.231205	1.638014	0.711693	0.160840	1.638014	0.586100	0.130682	1.373792	0.544235	0.080413	1.043548	0.502371	1.005218	7.620935	3.725384	0.000000	0.000000	27.027583	0.540392	10.457537	23.123343	-6.350875	74.613529	40.222676	51.029599	11.621027	10.283896	19.161628	-3.896697	61.339441	40.247062	52.185926	9.264911	8.675038
0.266667	1.281547	-6.116636	90.851580	0.197132	0.514699	0.958959	3.706233	3.798452	-6.319254	12.738881	0.222335	45.977679	16.946920	0.000000	2.640933	-0.249692	-4.626788	13.978204	0.243966	44.039979	-2.800650	0.000000	0.138191	0.678339	0.677102	0.256635	0.902190	0.719421	0.227035	1.649313	0.719421	0.157939	1.649313	0.592464	0.128325	1.383268	0.550145	0.078963	1.050747	0.507826	0.987088	7.673502	3.765837	0.000000	0.000000	26.947045	0.341809	10.421920	23.160243	-6.383038	74.645483	40.254875	50.984674	11.663017	10.377607	19.213118	-3.836697	61.321762	40.130772	52.508847	9.447151	8.601172
0.283333	1.342557	-6.166137	90.857652	0.197050	0.514924	0.959412	3.864638	3.867180	-6.185047	12.724106	0.222078	45.967257	16.883168	0.000000	2.774250	-0.332743	-4.767571	14.017916	0.244659	44.087851	-2.667591	0.000000	0.135941	0.685903	0.672862	0.252456	0.912251	0.714915	0.223337	1.667704	0.714915	0.155367	1.667704	0.588754	0.126235	1.398693	0.546700	0.077677	1.062464	0.504646	0.971011	7.759070	3.742254	0.000000	0.000000	26.871916	0.094652	10.387787	23.202121	-6.442308	74.678566	40.317686	50.905938	11.727139	10.371428	19.263931	-3.786819	61.373211	39.999451	52.916779	9.660594	8.398787
0.300000	1.418853	-6.209081	90.939611	0.196811	0.515141	0.959896	3.999862	3.943027	-6.138419	12.697640	0.221616	45.954457	16.805607	0.000000	2.919769	-0.423314	-4.839251	14.078311	0.245713	44.157401	-2.515096	0.000000	0.134227	0.696285	0.656942	0.249274	0.926060	0.698001	0.220522	1.692948	0.698001	0.153408	1.692948	0.574824	0.124644	1.419865	0.533765	0.076698	1.078546	0.492706	0.958773	7.876519	3.653713	0.000000	0.000000	26.799847	-0.171599	10.381086	23.253140	-6.519343	74.758742	40.371853	50.858360	11.833376	10.228032	19.323081	-3.737946	61.566147	39.802052	53.530647	9.886505	7.888903
0.316667	1.507725	-6.243871	91.090522	0.196441	0.515339	0.960377	4.108607	4.027220	-6.149003	12.665753	0.221059	45.933614	16.679984	0.000000	3.071813	-0.525491	-4.892249	14.161341	0.247162	44.252320	-2.288243	0.000000	0.133615	0.708805	0.631610	0.248137	0.942710	0.671086	0.219517	1.723387	0.671086	0.152709	1.723387	0.552659	0.124075	1.445394	0.513183	0.076348	1.097938	0.473708	0.954400	8.018139	3.512827	0.000000	0.000000	26.737928	-0.449036	10.374533	23.303219	-6.605950	74.881962	40.397497	50.866245	11.947493	9.976674	19.383959	-3.691424	61.884109	39.560511	54.219820	10.132370	7.255283
